<?xml version="1.0" encoding="UTF-8"?>
<svg width="44px" height="44px" viewBox="0 0 44 44" version="1.1" xmlns="http://www.w3.org/2000/svg" xmlns:xlink="http://www.w3.org/1999/xlink">
    <!-- Generator: sketchtool 52.6 (67491) - http://www.bohemiancoding.com/sketch -->
    <title>AD355477-AFC6-4259-B645-4C499FEB6103</title>
    <desc>Created with sketchtool.</desc>
    <g id="Page-1" stroke="none" stroke-width="1" fill="none" fill-rule="evenodd">
        <g id="190111_corpwebs_about" transform="translate(-566.000000, -1004.000000)" fill-rule="nonzero">
            <g id="Group" transform="translate(136.000000, 446.000000)">
                <g id="icVehichleFleet" transform="translate(430.000000, 558.000000)">
                    <rect id="Rectangle" fill="#014899" x="0" y="0" width="43.2" height="43.2" rx="4.32"></rect>
                    <path d="M24.8832033,15.5649644 C25.2165978,15.5649644 25.4879038,15.8323957 25.4879037,16.1612528 L25.4879037,18.7176013 C25.4879037,19.0464584 25.2165977,19.3138911 24.8832032,19.3138911 L24.2393581,19.3138911 C23.9059636,19.3138911 23.6346575,19.0464584 23.6346575,18.7176013 L23.6346575,16.1612528 C23.6346575,15.8323957 23.9059635,15.5649644 24.2393581,15.5649644 L24.2798521,15.5649644 L24.2798521,15.1968572 C24.2798521,14.912129 24.0449903,14.6806202 23.7561382,14.6806202 L23.2319745,14.6806202 L23.2319745,27.0430281 C23.2319745,27.5827166 22.8474848,28.0335093 22.334822,28.1483213 L22.334822,28.9084002 C22.334822,29.2454637 22.0563173,29.5199922 21.7143747,29.5199922 L20.155831,29.5199922 C19.813887,29.5199922 19.5353824,29.2454637 19.5353824,28.9084002 L19.5353824,28.1783961 L11.7127455,28.1783961 L11.7127455,28.9084002 C11.7127455,29.2454637 11.4342409,29.5199922 11.0920727,29.5199922 L9.53375423,29.5199922 C9.19158538,29.5199922 8.9130814,29.2454637 8.9130814,28.9084002 L8.9130814,28.1581053 C8.37510997,28.0628085 7.96486214,27.6005111 7.96486214,27.0430281 L7.96486214,14.6806202 L7.44092338,14.6806202 C7.15207101,14.6806202 6.91698461,14.912129 6.91698461,15.1968572 L6.91698461,15.5649644 L7.00854463,15.5649644 C7.34216439,15.5649644 7.61346976,15.8323957 7.61346976,16.1610318 L7.61346976,18.7176013 C7.61346976,19.0464584 7.34216443,19.313891 7.00854463,19.313891 L6.36470055,19.313891 C6.03130537,19.313891 5.76,19.0464584 5.76,18.7176013 L5.76,16.1610318 C5.76,15.8323957 6.03130537,15.5649644 6.36470055,15.5649644 L6.45626044,15.5649644 L6.45626044,15.1968572 C6.45626044,14.6617708 6.89808777,14.2264735 7.44092341,14.2264735 L7.96486218,14.2264735 L7.96486218,13.6590125 C7.96486218,12.4795175 8.93827692,11.52 10.1348552,11.52 L21.0619816,11.52 C22.258335,11.52 23.2319746,12.4795175 23.2319746,13.6590125 L23.2319746,14.2264735 L23.7561383,14.2264735 C24.298749,14.2264735 24.7405766,14.6617708 24.7405766,15.1968572 L24.7405766,15.5649644 L24.8832033,15.5649644 Z M10.9483208,13.1610148 L10.9483208,13.8104128 C10.9483208,14.0384008 11.1375713,14.2249209 11.3688613,14.2249209 L20.0321012,14.2249209 C20.2633912,14.2249209 20.4526122,14.0384008 20.4526122,13.8104128 L20.4526122,13.1610148 C20.4526122,12.9330262 20.2633912,12.7465061 20.0321012,12.7465061 L11.3688613,12.7465061 C11.1375713,12.7465061 10.9483208,12.9330262 10.9483208,13.1610148 Z M11.3799124,26.3451213 C11.5304413,26.3443749 11.6498964,26.2200276 11.6424729,26.0718423 L11.6127211,25.478074 C11.6066189,25.3561398 11.5154244,25.2547716 11.3933824,25.2342041 L9.30867864,24.8828405 C9.14912327,24.8559529 9.00278511,24.9755047 8.99997302,25.1350266 L8.98312925,26.0907195 C8.98054205,26.2368268 9.10039098,26.3564037 9.24861336,26.3556837 L11.3799124,26.3451213 Z M9.66088642,23.8675524 C13.5643308,24.920869 17.6836562,24.920869 21.5871302,23.8675524 C21.9611034,23.7651863 22.2647474,23.3649526 22.2649435,22.9921333 C22.2649166,20.6442046 22.2649166,18.2962746 22.2649435,15.9483168 C22.265169,15.4346848 21.8361368,15.0116388 21.3116361,15.0086183 L9.93638193,15.0086183 C9.4118805,15.0116388 8.98279123,15.4347126 8.98307286,15.9483168 L8.98307286,22.9921333 C8.98324172,23.3649526 9.2868854,23.7651863 9.66088642,23.8675524 Z M19.6055437,26.0718424 C19.5980913,26.2200276 19.717574,26.3443749 19.8681029,26.3451214 L21.9994026,26.3556838 C22.1476246,26.3564038 22.2674739,26.2368269 22.2648877,26.0907196 L22.2480426,25.1350267 C22.2452013,24.9755047 22.0988645,24.8559529 21.9393376,24.8828406 L19.8546336,25.2342042 C19.7325634,25.2547717 19.6413971,25.3561398 19.635266,25.4780741 L19.6055437,26.0718424 Z M30.85925,15.5649736 C31.1926365,15.5649736 31.46396,15.8323944 31.46396,16.1612541 L31.46396,18.7176092 C31.46396,19.046469 31.1926365,19.3138897 30.85925,19.3138897 L30.215417,19.3138897 C29.8820037,19.3138897 29.6107098,19.046469 29.6107098,18.7176092 L29.6107098,16.1612541 C29.6107098,15.8323944 29.8820037,15.5649736 30.215417,15.5649736 L30.2558855,15.5649736 L30.2558855,15.1968691 C30.2558855,14.9121343 30.0210344,14.680607 29.7321743,14.680607 L29.2080174,14.680607 L29.2080174,27.0430148 C29.2080174,27.5827086 28.8235491,28.033504 28.3108728,28.1483265 L28.3108728,28.9084054 C28.3108728,29.2454662 28.0323601,29.52 27.6904175,29.52 L26.1318724,29.52 C25.7899298,29.52 25.5114184,29.2454662 25.5114184,28.9084054 L25.5114184,28.1783987 L23.2447712,28.1783987 C23.540787,27.8847574 23.7205561,27.4837587 23.7205561,27.0428109 L23.7205561,24.5471576 C25.0139813,24.4268672 26.3003086,24.2083033 27.5631655,23.8675378 C27.9371386,23.7651796 28.2407907,23.3649445 28.2409975,22.9921372 C28.240968,20.6442033 28.240968,18.2962679 28.2409975,15.9483049 C28.241207,15.4346874 27.8121828,15.0116414 27.2876982,15.008613 L25.2096167,15.008613 C25.1695645,14.7084158 25.038644,14.4385848 24.8416377,14.2249302 L26.0081399,14.2249302 C26.2394421,14.2249302 26.4286643,14.0384087 26.4286643,13.8104088 L26.4286643,13.1610089 C26.4286643,12.9330381 26.2394421,12.7465173 26.0081399,12.7465173 L23.5509572,12.7465173 C23.3624492,12.2486275 23.0260832,11.8222295 22.5927648,11.5200033 L27.0380229,11.5200033 C28.2343777,11.5200033 29.2080173,12.4795082 29.2080173,13.6590165 L29.2080173,14.2264881 L29.7321743,14.2264881 C30.2747917,14.2264881 30.7166098,14.6617629 30.7166098,15.1968691 L30.7166098,15.5649736 L30.85925,15.5649736 Z M27.9754587,26.3556943 C28.1236768,26.3563985 28.2435327,26.2368136 28.2409384,26.0907143 L28.2240893,25.1350306 C28.2212561,24.9754954 28.0749179,24.8559396 27.9153965,24.8828366 L25.8306964,25.2342148 C25.7086034,25.2547624 25.6174371,25.3561517 25.6113235,25.4780873 L25.5815904,26.0718397 C25.574134,26.2200277 25.6936328,26.3443775 25.8441456,26.3451108 L27.9754587,26.3556943 Z M36.8352927,15.5649736 C37.1687061,15.5649736 37.44,15.8323944 37.44,16.1612541 L37.44,18.7176092 C37.44,19.0464689 37.1687061,19.3138897 36.8352927,19.3138897 L36.191457,19.3138897 C35.8580732,19.3138897 35.5867497,19.046469 35.5867497,18.7176092 L35.5867497,16.1612541 C35.5867497,15.8323944 35.8580732,15.5649736 36.191457,15.5649736 L36.2319551,15.5649736 L36.2319551,15.1968691 C36.2319551,14.9121343 35.9970745,14.680607 35.7082466,14.680607 L35.1840574,14.680607 L35.1840574,27.0430148 C35.1840574,27.5827086 34.7995891,28.033504 34.2869128,28.1483265 L34.2869128,28.9084054 C34.2869128,29.2454662 34.0084028,29.52 33.6664602,29.52 L32.1079138,29.52 C31.7659712,29.52 31.4874881,29.2454662 31.4874881,28.9084054 L31.4874881,28.1783987 L29.2209295,28.1783987 C29.5169465,27.8847574 29.6967171,27.4837587 29.6967171,27.0428109 L29.6967171,24.5471285 C30.9901114,24.4268368 32.2764104,24.2083033 33.5392378,23.8675378 C33.9132083,23.7651796 34.2168308,23.3649445 34.2170403,22.9921372 C34.2170081,20.6442033 34.2170081,18.2962679 34.2170403,15.9483049 C34.2172766,15.4346874 33.7882229,15.0116414 33.2637383,15.008613 L31.1857454,15.008613 C31.1456045,14.7084158 31.0146546,14.4385848 30.8176777,14.2249302 L31.9842095,14.2249302 C32.2154834,14.2249302 32.4047043,14.0384087 32.4047043,13.8104088 L32.4047043,13.1610089 C32.4047043,12.9330381 32.2154834,12.7465173 31.9842095,12.7465173 L29.5270576,12.7465173 C29.3384893,12.2486275 29.0020655,11.8222295 28.5687471,11.5200033 L33.0140657,11.5200033 C34.2104177,11.5200033 35.1840574,12.4795082 35.1840574,13.6590165 L35.1840574,14.2264881 L35.7082466,14.2264881 C36.2508345,14.2264881 36.6926821,14.6617629 36.6926821,15.1968691 L36.6926821,15.5649736 L36.8352927,15.5649736 Z M33.9515015,26.3556943 C34.0997168,26.3563985 34.2195728,26.2368136 34.2169785,26.0907143 L34.2001294,25.1350306 C34.1972961,24.9754954 34.050958,24.8559396 33.8914392,24.8828366 L31.8067378,25.2342148 C31.6846448,25.2547624 31.5934785,25.3561517 31.5873635,25.4780873 L31.5576318,26.0718397 C31.5501768,26.2200277 31.6696729,26.3443775 31.820187,26.3451108 L33.9515015,26.3556943 Z" id="Combined-Shape" fill="#FFFFFF"></path>
                </g>
            </g>
        </g>
    </g>
</svg>