<?xml version="1.0" encoding="UTF-8"?>
<svg width="44px" height="44px" viewBox="0 0 44 44" version="1.1" xmlns="http://www.w3.org/2000/svg" xmlns:xlink="http://www.w3.org/1999/xlink">
    <!-- Generator: sketchtool 52.6 (67491) - http://www.bohemiancoding.com/sketch -->
    <title>A8027C11-05B0-4B3C-9B35-8EA9639B1BEC</title>
    <desc>Created with sketchtool.</desc>
    <g id="Page-1" stroke="none" stroke-width="1" fill="none" fill-rule="evenodd">
        <g id="190111_corpwebs_about" transform="translate(-566.000000, -478.000000)">
            <g id="Group" transform="translate(136.000000, 446.000000)">
                <g id="icVehiclesCovered" transform="translate(430.000000, 32.000000)">
                    <rect id="Rectangle" fill="#014899" fill-rule="nonzero" x="0" y="0" width="43.2" height="43.2" rx="4.32"></rect>
                    <path d="M28.6392705,26.5482946 C27.4118367,26.5482946 26.4083144,25.5658719 26.4083144,24.3541281 C26.4083144,23.1486304 27.4118367,22.1608539 28.6392705,22.1608539 C29.8703304,22.1608539 30.8675071,23.1486304 30.8675071,24.3541281 C30.8675071,25.5658719 29.8703304,26.5482946 28.6392705,26.5482946 Z M16.7656162,17.7778748 L15.2190858,17.7778748 C14.4304098,17.7778748 13.7904037,17.2085872 13.7904037,16.4983161 L13.7904037,14.8573759 C13.7904037,13.2316047 15.1157421,11.9324154 16.7656162,11.9324154 L27.1580099,11.9324154 C28.7979122,11.9324154 30.1286898,13.2316047 30.1286898,14.8573759 L30.1286898,16.4983161 C30.1286898,17.2085872 29.4923098,17.7778748 28.6981946,17.7778748 L27.1580099,17.7778748 L16.7656162,17.7778748 Z M15.2734773,26.5482946 C14.0460435,26.5482946 13.0443342,25.5658719 13.0443342,24.3541281 C13.0443342,23.1486304 14.0460435,22.1608539 15.2734773,22.1608539 C16.5054437,22.1608539 17.4999008,23.1486304 17.4999008,24.3541281 C17.4999008,25.5658719 16.5054437,26.5482946 15.2734773,26.5482946 Z M32.0160733,18.5256225 L32.0160733,18.3989158 C33.0250347,18.3989158 33.84,17.5994147 33.84,16.6071768 C33.84,15.609585 33.0250347,14.8056225 32.0160733,14.8056225 C32.0160733,12.2009978 29.3844334,10.08 26.151768,10.08 L17.7709515,10.08 C14.531034,10.08 11.9021137,12.2009978 11.9021137,14.8056225 C10.8949653,14.8056225 10.08,15.609585 10.08,16.6071768 C10.08,17.5994147 10.8949653,18.3989158 11.9021137,18.3989158 L11.9021137,18.5256225 C10.8296955,19.311739 10.08,20.2781003 10.08,21.32923 L10.08,24.9707076 C10.08,26.4956488 10.807939,27.8430223 11.9401877,28.706769 C11.912992,29.642792 11.9021137,29.4268554 11.9021137,29.6945455 C11.9021137,31.1855793 13.1331736,32.4 14.6443495,32.4 L15.559939,32.4 C17.0774605,32.4 18.3021747,31.1855793 18.3021747,29.6945455 C18.3021747,29.5285776 18.3085204,30.1192804 18.3184922,29.6945455 L25.5942556,29.6945455 C25.6051339,30.1192804 25.6123861,29.5285776 25.6123861,29.6945455 C25.6123861,31.1855793 26.8389134,32.4 28.360061,32.4 L29.2647722,32.4 C30.7886395,32.4 32.0160733,31.1855793 32.0160733,29.6945455 C32.0160733,29.4268554 31.9979428,29.642792 31.9743731,28.706769 C33.1057154,27.8430223 33.84,26.4956488 33.84,24.9707076 L33.84,21.32923 C33.84,20.2781003 33.0821457,19.311739 32.0160733,18.5256225 Z" id="Fill-1" fill="#FFFFFF" fill-rule="evenodd"></path>
                </g>
            </g>
        </g>
    </g>
</svg>