<?xml version="1.0" encoding="UTF-8"?>
<svg width="44px" height="44px" viewBox="0 0 44 44" version="1.1" xmlns="http://www.w3.org/2000/svg" xmlns:xlink="http://www.w3.org/1999/xlink">
    <!-- Generator: sketchtool 52.6 (67491) - http://www.bohemiancoding.com/sketch -->
    <title>31C7AC91-88FB-49AA-8885-521C8916F850</title>
    <desc>Created with sketchtool.</desc>
    <g id="Page-1" stroke="none" stroke-width="1" fill="none" fill-rule="evenodd">
        <g id="190111_corpwebs_about" transform="translate(-260.000000, -1004.000000)" fill-rule="nonzero">
            <g id="Group" transform="translate(136.000000, 446.000000)">
                <g id="icWarehouseStorage" transform="translate(124.000000, 558.000000)">
                    <rect id="Rectangle" fill="#014899" x="0" y="0" width="43.2" height="43.2" rx="4.32"></rect>
                    <path d="M21.4027036,28.4744186 L21.4027036,33.3711628 C21.4027036,33.6055814 21.1951451,33.8139535 20.9616419,33.8139535 L16.0840185,33.8139535 C15.8505153,33.8139535 15.6429568,33.6055814 15.6429568,33.3711628 L15.6429568,28.4744186 C15.6429568,28.24 15.8505153,28.0316279 16.0840185,28.0316279 L17.9779893,28.0316279 L17.9779893,29.8027907 L19.1195607,29.8027907 L19.1195607,28.0316279 L20.9616419,28.0316279 C21.1951451,28.0316279 21.4027036,28.2139535 21.4027036,28.4744186 Z M27.8629601,28.0316279 L26.0208789,28.0316279 L26.0208789,29.8027907 L24.8793075,29.8027907 L24.8793075,28.0316279 L22.9853367,28.0316279 C22.7518335,28.0316279 22.544275,28.24 22.544275,28.4744186 L22.544275,33.3711628 C22.544275,33.6055814 22.7518335,33.8139535 22.9853367,33.8139535 L27.8629601,33.8139535 C28.0964633,33.8139535 28.3040218,33.6055814 28.3040218,33.3711628 L28.3040218,28.4744186 C28.3040218,28.2139535 28.0964633,28.0316279 27.8629601,28.0316279 Z M19.5346776,21.1032558 C19.3011744,21.1032558 19.0936159,21.3116279 19.0936159,21.5460465 L19.0936159,26.4427907 C19.0936159,26.6772093 19.3011744,26.8855814 19.5346776,26.8855814 L24.412301,26.8855814 C24.6458042,26.8855814 24.8533627,26.6772093 24.8533627,26.4427907 L24.8533627,21.5460465 C24.8533627,21.3116279 24.6458042,21.1032558 24.412301,21.1032558 L22.5702198,21.1032558 L22.5702198,22.8744186 L21.4286484,22.8744186 L21.4286484,21.1032558 L19.5346776,21.1032558 Z M33.5448724,18.4725581 L22.9075023,8.99162791 C22.3626614,8.5227907 21.5583724,8.5227907 21.0135315,8.99162791 L10.3761614,18.4725581 C9.77943083,18.9934884 10.1426581,19.9832558 10.9469471,19.9832558 L12.0625737,19.9832558 L12.0625737,33.3711628 C12.0625737,33.6316279 12.2701321,33.8139535 12.5036354,33.8139535 L14.0343789,33.8139535 C14.2938269,33.8139535 14.4754406,33.6055814 14.4754406,33.3711628 L14.4754406,20.0093023 L29.4196484,20.0093023 L29.4196484,33.3972093 C29.4196484,33.6576744 29.6272068,33.84 29.8607101,33.84 L31.3914536,33.84 C31.6509016,33.84 31.8325153,33.6316279 31.8325153,33.3972093 L31.8325153,20.0093023 L32.9481419,20.0093023 C33.7783757,20.0093023 34.141603,19.0195349 33.5448724,18.4725581 Z" id="Shape" fill="#FFFFFF"></path>
                </g>
            </g>
        </g>
    </g>
</svg>